<?xml version="1.0" standalone="no"?>
<!DOCTYPE svg PUBLIC "-//W3C//DTD SVG 20010904//EN"
 "http://www.w3.org/TR/2001/REC-SVG-20010904/DTD/svg10.dtd">
<svg version="1.0" xmlns="http://www.w3.org/2000/svg"
 width="260.000000pt" height="260.000000pt" viewBox="0 0 260.000000 260.000000"
 preserveAspectRatio="xMidYMid meet">
<metadata>
Created by potrace 1.11, written by Peter Selinger 2001-2013
</metadata>
<g transform="translate(0.000000,260.000000) scale(0.100000,-0.100000)"
fill="#000000" stroke="none">
<path d="M1135 2096 c-5 -11 -3 -26 4 -37 9 -16 8 -19 -5 -19 -13 0 -15 -12
-12 -74 2 -62 1 -73 -12 -69 -8 3 -4 -5 10 -16 l25 -21 -39 16 c-57 23 -116
14 -175 -26 -27 -19 -56 -46 -65 -62 -10 -15 -24 -28 -32 -28 -8 0 -13 -4 -10
-9 8 -13 -55 -152 -66 -145 -5 3 -9 0 -7 -7 4 -31 -2 -50 -21 -69 -13 -13 -16
-22 -8 -26 14 -9 38 23 38 52 0 12 7 27 16 34 12 11 15 11 12 0 -2 -7 2 -14 8
-16 14 -6 51 63 70 128 23 79 35 108 48 108 6 0 34 -42 63 -93 53 -95 112
-172 113 -149 0 30 32 122 40 117 4 -3 15 6 24 20 35 53 100 18 89 -48 -6 -37
-20 -46 -40 -26 -8 8 -13 5 -18 -10 -10 -31 -24 -26 -43 17 -15 35 -16 35 -19
12 -9 -65 -25 -130 -31 -126 -4 2 -7 -19 -7 -47 0 -38 -4 -51 -13 -49 -8 1
-12 -3 -10 -10 3 -7 11 -13 19 -13 9 0 16 16 20 50 3 28 9 61 14 74 8 23 9 24
15 5 4 -10 3 -29 -1 -42 -7 -19 -5 -24 18 -33 35 -13 107 -1 135 23 22 19 22
19 35 -7 11 -19 21 -25 48 -25 l35 0 0 -50 c0 -28 6 -63 14 -79 9 -17 11 -32
5 -42 -15 -24 -10 -248 7 -314 8 -33 15 -69 15 -80 -2 -89 0 -148 5 -195 5
-50 5 -53 -9 -35 -8 11 -37 43 -65 70 -60 61 -62 59 -62 -83 l0 -94 75 3 c43
2 76 -1 77 -6 2 -6 -30 -11 -74 -13 l-78 -3 0 -149 0 -150 46 0 c53 0 186 20
196 29 10 9 42 281 34 288 -3 4 -6 -1 -6 -9 0 -14 -4 -14 -25 -5 -33 16 -32
35 3 40 l27 4 -26 2 c-30 1 -26 -16 -45 216 -6 63 -9 76 -17 58 -6 -14 -4 -93
7 -238 9 -120 14 -220 11 -223 -15 -15 -18 11 -44 323 -6 66 -13 129 -16 140
-8 29 9 52 27 37 19 -16 21 4 21 202 -1 148 -3 170 -19 185 -17 15 -17 15 -5
-1 9 -13 10 -18 2 -18 -8 0 -9 -38 -5 -138 4 -77 3 -152 -1 -168 l-8 -29 -8
40 c-4 22 -11 97 -15 168 -4 70 -11 127 -16 127 -16 0 8 31 33 43 22 12 24 20
29 102 l5 90 33 10 c17 5 32 15 32 22 0 8 12 13 29 13 35 0 73 40 154 163 32
48 65 87 73 87 11 0 13 -6 9 -19 -3 -10 3 -45 14 -77 11 -33 30 -93 41 -134
12 -41 30 -85 40 -97 17 -22 18 -22 35 -3 13 14 15 27 10 47 -4 15 -7 40 -7
55 -1 15 -5 25 -10 22 -5 -3 -6 -26 -2 -50 12 -84 -13 -44 -45 74 -18 64 -39
132 -47 150 -13 31 -12 33 9 42 20 8 21 9 2 10 -18 1 -19 1 -2 11 28 16 20 31
-13 24 -16 -4 -30 -3 -30 2 0 15 -68 43 -105 43 -24 0 -35 -5 -35 -15 0 -22
-21 -18 -27 5 -5 19 -23 29 -23 13 0 -5 -13 -15 -29 -24 -20 -12 -31 -29 -40
-63 -14 -57 -28 -60 -27 -4 1 35 -3 43 -19 46 -11 2 -27 10 -35 17 -25 20 -73
24 -106 9 -34 -16 -44 -43 -44 -115 0 -43 -12 -55 -37 -40 -10 6 -15 11 -10
12 4 1 12 3 17 4 6 1 13 3 16 4 4 0 2 7 -3 14 -6 6 -18 36 -29 65 -13 38 -25
55 -45 64 -21 9 -31 24 -39 56 -14 56 -22 50 -14 -11 4 -30 12 -47 20 -47 20
0 17 -13 -6 -32 -10 -10 -26 -42 -35 -72 -18 -60 -41 -89 -51 -63 -3 9 -3 21
1 27 3 5 1 10 -5 10 -6 0 -9 4 -6 9 3 5 -1 25 -9 45 -18 41 -14 44 25 16 l28
-20 16 25 c20 30 21 46 2 39 -10 -4 -12 6 -9 47 2 29 8 60 13 69 10 18 1 100
-11 100 -4 0 -9 8 -12 18 -4 16 -5 16 -12 -2z m313 -264 c6 -9 12 -26 12 -39
0 -13 -6 -24 -12 -24 -7 -1 -25 -3 -40 -5 -27 -3 -28 -1 -28 40 0 23 3 46 7
49 10 10 46 -2 61 -21z m-377 -9 c20 -52 33 -112 26 -119 -8 -9 -38 16 -32 26
2 4 -9 28 -25 54 -37 57 -37 66 -5 66 19 0 28 -8 36 -27z m675 -18 c-7 -11
-19 -20 -25 -20 -7 0 -21 -11 -33 -25 -19 -24 -19 -23 1 14 31 54 21 54 -12 0
-15 -25 -23 -43 -17 -39 5 3 10 1 10 -6 0 -8 5 -8 18 2 15 11 15 11 4 -1 -7
-8 -22 -15 -32 -15 -11 0 -20 -3 -20 -7 0 -5 0 -13 0 -19 0 -8 6 -7 17 2 21
17 -39 -62 -62 -81 -18 -15 -21 0 -3 18 7 7 9 12 4 12 -4 0 0 10 8 22 9 12 16
29 16 37 0 8 17 40 37 71 33 51 40 57 70 57 31 -1 32 -3 19 -22z m-497 -25 c5
-17 6 -28 2 -25 -5 3 -14 19 -20 35 -5 17 -6 28 -2 25 5 -3 14 -19 20 -35z
m201 -56 c0 -2 -9 -4 -21 -4 -11 0 -18 4 -14 10 5 8 35 3 35 -6z m17 -30 c9
-25 -11 -354 -22 -354 -6 0 -14 58 -20 136 -5 75 -13 133 -16 129 -9 -8 -22
82 -14 95 10 16 65 12 72 -6z m-653 -43 c-9 -23 -18 -40 -21 -38 -2 3 4 23 13
46 9 23 18 40 21 38 2 -3 -4 -23 -13 -46z m494 15 c-7 -6 -21 -20 -31 -31 -18
-20 -18 -20 -11 10 10 42 11 44 34 38 16 -4 18 -8 8 -17z m-104 -171 c-6 -16
-42 -30 -51 -21 -4 3 1 6 9 6 9 0 21 7 28 15 16 19 21 19 14 0z"/>
<path d="M1727 1813 c-4 -3 -7 -11 -7 -17 0 -6 5 -5 12 2 6 6 9 14 7 17 -3 3
-9 2 -12 -2z"/>
<path d="M1614 1658 l-19 -23 23 19 c21 18 27 26 19 26 -2 0 -12 -10 -23 -22z"/>
<path d="M894 2048 c-3 -5 -1 -15 5 -21 16 -16 14 -30 -4 -23 -8 3 -15 0 -15
-6 0 -6 -7 -5 -17 3 -16 13 -17 12 -4 -4 8 -9 16 -15 19 -12 8 7 33 -16 27
-25 -3 -5 0 -12 6 -16 7 -4 9 -3 5 4 -3 6 -2 13 4 17 5 3 10 15 10 25 0 50 57
24 86 -39 11 -22 22 -41 27 -41 4 0 7 2 7 4 0 11 -35 85 -51 107 -10 14 -17
28 -15 30 3 2 -15 5 -40 6 -24 1 -47 -3 -50 -9z"/>
<path d="M658 2033 c7 -3 16 -2 19 1 4 3 -2 6 -13 5 -11 0 -14 -3 -6 -6z"/>
<path d="M786 2027 c4 -11 -11 -15 -75 -19 -46 -3 -87 -10 -96 -18 -13 -11
-21 -11 -36 -2 -15 10 -19 9 -19 -1 0 -7 6 -19 13 -26 10 -11 8 -11 -10 -2
-24 12 -31 3 -12 -16 8 -8 2 -27 -24 -70 -19 -32 -47 -82 -62 -111 -41 -82
-42 -53 -2 33 46 95 39 98 -9 3 -51 -102 -54 -103 -95 -57 -19 21 -37 39 -41
39 -7 0 -68 -155 -68 -176 0 -13 13 -13 86 2 13 2 24 14 28 28 7 30 34 58 48
50 5 -3 1 -12 -9 -19 -11 -8 -27 -31 -37 -52 -16 -35 -20 -38 -59 -38 -72 -1
-73 -2 -92 -130 -15 -97 -16 -118 -4 -125 7 -5 18 -6 24 -3 5 4 6 2 2 -3 -5
-5 -14 -9 -20 -9 -7 -1 -11 -7 -9 -15 3 -12 1 -13 -9 -2 -7 6 -32 12 -56 12
l-43 0 0 -45 c0 -25 3 -45 7 -45 4 0 24 16 44 36 24 23 37 31 35 20 -3 -20
-66 -87 -77 -80 -4 2 -10 0 -13 -5 -4 -5 -2 -12 3 -16 6 -3 13 -26 17 -50 5
-35 11 -46 28 -49 11 -3 34 -8 50 -11 28 -6 29 -5 22 27 -14 65 -23 139 -16
143 3 2 11 -33 18 -78 6 -44 16 -85 22 -91 8 -8 243 -45 294 -46 14 0 17 5 12
23 -3 12 -11 77 -18 145 l-11 122 -124 0 c-80 0 -122 4 -118 10 4 6 57 10 126
10 l119 0 0 63 c0 40 5 70 15 83 13 17 14 10 8 -63 l-6 -83 134 0 c118 0 131
2 109 13 -14 8 -67 54 -119 104 l-94 90 21 44 c22 45 46 148 37 157 -3 3 -1
10 4 16 15 19 81 188 76 196 -3 5 15 10 40 12 39 3 49 -1 80 -30 19 -19 33
-38 30 -43 -3 -5 -1 -17 4 -28 10 -18 12 -18 61 7 27 15 50 29 50 32 0 3 -9
16 -19 29 -14 18 -20 21 -26 11 -6 -9 -4 -11 6 -5 8 5 11 5 7 0 -4 -4 -2 -17
4 -29 6 -11 -11 3 -37 32 -33 37 -54 52 -66 49 -10 -3 -18 -2 -17 2 2 19 -3
24 -12 11 -8 -12 -10 -9 -10 12 0 15 -4 30 -10 33 -5 3 -7 0 -4 -8z m-112 -76
c-3 -3 -11 -6 -17 -6 -19 0 -67 -145 -63 -187 3 -27 0 -38 -9 -38 -19 0 -39
-66 -39 -131 -1 -41 -4 -55 -13 -52 -7 3 -11 9 -8 14 12 19 -20 49 -52 49 -34
0 -44 14 -18 24 12 4 14 10 5 25 -8 15 -7 22 4 28 7 4 24 28 36 53 13 25 41
74 63 109 23 36 40 75 39 88 -1 14 2 21 8 18 5 -3 17 -2 26 3 17 10 47 12 38
3z m-293 -363 c-17 -35 -28 -52 -24 -38 10 43 43 113 49 107 4 -3 -8 -34 -25
-69z m-78 -189 c-17 -17 -37 -1 -22 17 8 10 15 12 23 4 7 -7 7 -13 -1 -21z"/>
<path d="M1875 2019 c-4 -13 -23 -41 -43 -61 -43 -45 -21 -54 26 -10 16 15 40
28 53 30 13 1 50 5 82 9 62 6 72 17 31 35 -19 9 -36 9 -71 0 -40 -11 -47 -11
-58 5 -11 15 -13 15 -20 -8z"/>
<path d="M1428 2001 c-18 -16 -42 -44 -52 -63 -16 -26 -9 -21 30 21 49 53 51
54 120 61 l69 7 -67 2 c-61 1 -70 -2 -100 -28z"/>
<path d="M1640 1996 c0 -2 8 -10 18 -17 15 -13 16 -12 3 4 -13 16 -21 21 -21
13z"/>
<path d="M1930 1950 c-1 -23 -2 -23 -10 -5 -7 18 -8 19 -15 3 -4 -10 -11 -15
-17 -12 -5 3 -18 -2 -28 -11 -15 -14 -17 -20 -7 -36 16 -25 29 -24 60 5 14 13
29 21 32 17 4 -3 25 -6 47 -6 40 0 41 -1 66 -60 14 -33 29 -62 33 -65 3 -3 9
-26 13 -51 11 -76 80 -204 144 -268 32 -32 70 -83 86 -114 33 -68 159 -207
175 -192 6 7 -6 29 -39 69 -27 33 -59 79 -72 103 -13 25 -29 42 -38 40 -12 -1
-14 7 -12 40 4 52 -32 168 -62 198 -12 13 -21 36 -22 56 -1 19 -22 77 -48 129
-41 84 -52 97 -32 35 4 -11 -2 -4 -12 15 -11 19 -18 40 -15 47 3 7 0 13 -6 13
-6 0 -8 7 -5 15 4 11 2 13 -9 9 -8 -3 -29 2 -47 11 -20 10 -49 15 -83 13 -37
-2 -56 1 -64 12 -11 13 -13 11 -13 -10z m250 -240 c22 -44 44 -80 49 -80 5 0
7 -8 5 -17 -3 -10 2 -40 10 -66 11 -38 12 -46 1 -37 -7 6 -18 24 -25 40 -7 17
-18 30 -25 30 -8 0 -10 9 -8 24 7 37 -35 156 -53 149 -8 -3 -14 -3 -14 0 0 9
12 37 16 37 2 0 22 -36 44 -80z"/>
<path d="M1677 1939 c4 -13 8 -18 11 -10 2 7 -1 18 -6 23 -8 8 -9 4 -5 -13z"/>
<path d="M1728 1923 c12 -2 32 -2 45 0 12 2 2 4 -23 4 -25 0 -35 -2 -22 -4z"/>
<path d="M234 1848 c-10 -16 2 -18 21 -5 16 12 16 14 1 14 -9 0 -19 -4 -22 -9z"/>
<path d="M245 1811 c-35 -16 -43 -26 -64 -82 -12 -35 -29 -86 -36 -112 l-14
-48 32 6 c57 11 67 16 67 30 0 7 14 53 31 102 50 142 51 134 -16 104z"/>
<path d="M840 1814 c0 -8 5 -12 10 -9 6 3 10 10 10 16 0 5 -4 9 -10 9 -5 0
-10 -7 -10 -16z"/>
<path d="M1921 1640 c0 -8 4 -24 9 -35 5 -13 9 -14 9 -5 0 8 -4 24 -9 35 -5
13 -9 14 -9 5z"/>
<path d="M168 1563 c-43 -5 -43 -6 -58 -123 -16 -135 -17 -132 33 -128 41 3
42 4 45 43 3 49 20 162 28 193 4 12 2 21 -2 20 -5 -1 -26 -3 -46 -5z"/>
<path d="M1920 1423 c2 -57 43 -221 68 -269 5 -11 15 -41 21 -69 12 -49 105
-251 134 -289 17 -23 50 -15 40 9 -4 12 -8 13 -13 5 -9 -15 -25 11 -78 127
-48 105 -74 193 -61 208 5 5 9 23 9 40 0 37 -25 169 -40 213 -22 62 -27 31 -9
-60 33 -165 11 -152 -26 16 -11 50 -22 76 -31 76 -8 0 -14 -3 -14 -7z"/>
<path d="M540 1257 c0 -26 5 -92 11 -147 11 -89 14 -101 33 -105 12 -3 94 -11
183 -18 l163 -12 -7 104 -6 104 -56 54 -56 55 -132 5 -133 6 0 -46z"/>
<path d="M149 1233 c-13 -16 -12 -17 4 -4 16 13 21 21 13 21 -2 0 -10 -8 -17
-17z"/>
<path d="M952 1065 l3 -90 89 -3 88 -3 -53 52 c-30 28 -53 55 -51 60 1 5 -3 9
-10 9 -7 0 -25 15 -40 33 l-28 32 2 -90z"/>
<path d="M2060 1061 c24 -66 82 -192 87 -188 2 2 -10 33 -26 68 -15 35 -36 88
-45 117 -10 28 -21 52 -26 52 -5 0 0 -22 10 -49z"/>
<path d="M135 1019 c4 -19 19 -70 33 -114 27 -79 27 -80 82 -107 30 -14 56
-25 58 -23 2 2 -16 61 -40 132 -24 70 -43 129 -44 130 0 2 -22 6 -48 9 l-48 7
7 -34z"/>
<path d="M257 978 c8 -29 26 -82 40 -118 13 -36 27 -73 30 -82 3 -10 37 -29
82 -46 106 -40 212 -75 216 -70 2 2 -12 64 -31 138 -18 74 -34 145 -34 158 0
30 -22 38 -163 57 -171 22 -159 25 -140 -37z"/>
<path d="M574 954 c19 -108 69 -290 83 -301 17 -13 258 -73 294 -73 19 0 20 4
15 33 -3 17 -12 101 -20 186 -8 84 -16 154 -18 155 -2 2 -67 8 -145 15 -77 6
-158 15 -178 18 l-38 6 7 -39z"/>
<path d="M960 913 c0 -45 28 -334 32 -339 9 -8 143 -24 211 -24 l77 0 0 145
c0 80 -3 144 -7 143 -5 -2 -30 19 -57 45 -46 44 -48 47 -25 49 30 2 -108 15
-178 17 l-53 1 0 -37z"/>
<path d="M251 721 c52 -98 89 -144 140 -177 21 -13 41 -24 44 -24 3 0 -22 53
-55 118 -58 116 -60 119 -107 138 -26 10 -52 21 -57 23 -5 2 11 -33 35 -78z"/>
<path d="M350 730 c0 -6 25 -60 55 -120 l56 -108 123 -61 c132 -65 152 -72
138 -43 -5 9 -26 67 -46 128 l-37 112 -127 45 c-70 24 -135 48 -144 52 -11 4
-18 3 -18 -5z"/>
<path d="M660 618 c1 -29 81 -244 95 -254 21 -16 243 -90 249 -83 3 3 -1 52
-9 110 -27 185 -18 166 -83 179 -31 6 -99 23 -149 36 -109 28 -103 27 -103 12z"/>
<path d="M995 529 c2 -13 9 -64 15 -114 18 -143 18 -143 53 -154 35 -11 163
-31 196 -31 20 0 21 5 21 149 l0 148 -92 6 c-51 3 -116 9 -144 13 -50 6 -52 6
-49 -17z"/>
<path d="M435 470 c38 -38 70 -70 72 -70 1 0 -10 21 -24 46 -22 39 -86 94
-110 94 -4 0 24 -31 62 -70z"/>
<path d="M480 474 c0 -18 58 -99 90 -127 52 -44 214 -140 218 -128 2 5 -12 39
-30 76 l-33 68 -122 58 c-68 32 -123 55 -123 53z"/>
<path d="M1615 458 c-2 -7 -10 -52 -18 -100 -16 -103 -21 -100 91 -62 79 27
110 44 80 44 -10 0 -29 16 -43 35 -15 19 -35 37 -44 40 -10 3 -23 17 -29 30
-12 27 -30 33 -37 13z"/>
<path d="M769 304 c37 -95 42 -102 90 -122 47 -20 147 -52 164 -52 11 0 0 110
-12 123 -4 4 -57 25 -117 46 -60 21 -117 42 -127 46 -17 7 -16 4 2 -41z"/>
<path d="M1807 314 c-4 -4 -55 -21 -114 -39 -114 -35 -115 -35 -127 -112 l-6
-41 38 9 c37 10 102 31 155 51 28 11 57 61 60 103 0 11 6 23 12 27 7 5 7 8 -1
8 -6 0 -14 -3 -17 -6z"/>
<path d="M1833 248 c-26 -34 -25 -38 4 -26 15 6 31 15 36 20 4 4 4 6 1 3 -4
-3 -13 0 -19 5 -9 7 -15 6 -22 -2z"/>
<path d="M1034 235 c3 -8 8 -37 12 -64 7 -57 7 -57 149 -67 l90 -7 -3 62 -4
61 -41 0 c-23 0 -73 7 -112 15 -88 19 -99 19 -91 0z"/>
<path d="M1495 228 c-27 -4 -80 -10 -117 -13 l-68 -7 0 -54 0 -54 63 1 c34 0
84 4 111 7 46 6 50 10 58 41 5 18 8 45 6 60 -3 26 -4 26 -53 19z"/>
</g>
</svg>
